<?xml version="1.0" encoding="UTF-8"?>
<svg width="35px" height="30px" viewBox="0 0 35 30" version="1.1" xmlns="http://www.w3.org/2000/svg" xmlns:xlink="http://www.w3.org/1999/xlink">
    <!-- Generator: Sketch Beta 45 (43458) - http://www.bohemiancoding.com/sketch -->
    <title>cloud-computing</title>
    <desc>Created with Sketch Beta.</desc>
    <defs></defs>
    <g id="Page-1" stroke="none" stroke-width="1" fill="none" fill-rule="evenodd">
        <g id="cloud-computing" fill-rule="nonzero" fill="#4A4A4A">
            <path d="M29.4086538,9.63115385 C29.1046154,4.43884615 24.8244231,0.288461538 19.6638462,0.288461538 C16.5311538,0.288461538 13.4976923,1.82480769 11.6180769,4.33153846 C11.5753846,4.30903846 11.5298077,4.29403846 11.4865385,4.27269231 C11.3723077,4.21730769 11.2563462,4.16423077 11.1375,4.1175 C11.0711538,4.09153846 11.0048077,4.06788462 10.9378846,4.04423077 C10.8213462,4.00326923 10.7036538,3.9675 10.5830769,3.93461538 C10.5161538,3.91673077 10.4498077,3.89826923 10.3817308,3.88269231 C10.2525,3.85326923 10.1209615,3.83076923 9.98769231,3.81115385 C9.92884615,3.8025 9.87115385,3.79096154 9.81173077,3.78403846 C9.62134615,3.76326923 9.4275,3.75 9.23076923,3.75 C6.36807692,3.75 4.03846154,6.07903846 4.03846154,8.94230769 C4.03846154,9.01673077 4.0425,9.08942308 4.04769231,9.16211538 C1.64826923,10.47 0,13.2109615 0,15.9542308 C0,20.0405769 3.32423077,23.3653846 7.41057692,23.3653846 L10.3846154,23.3653846 C10.7030769,23.3653846 10.9615385,23.1075 10.9615385,22.7884615 C10.9615385,22.4694231 10.7030769,22.2115385 10.3846154,22.2115385 L7.41057692,22.2115385 C3.96057692,22.2115385 1.15384615,19.4048077 1.15384615,15.9542308 C1.15384615,13.5576923 2.71442308,11.07 4.86461538,10.0390385 L5.19230769,9.88269231 L5.19230769,9.51923077 C5.19230769,9.44826923 5.19692308,9.37557692 5.20096154,9.30288462 L5.20615385,9.20192308 L5.19923077,9.09346154 C5.19634615,9.04326923 5.19230769,8.99307692 5.19230769,8.94230769 C5.19230769,6.71596154 7.00384615,4.90384615 9.23076923,4.90384615 C9.40903846,4.90384615 9.585,4.91942308 9.75980769,4.9425 C9.80480769,4.94826923 9.84923077,4.95576923 9.89365385,4.96326923 C10.0482692,4.98865385 10.2005769,5.02211538 10.3505769,5.06538462 C10.3701923,5.07115385 10.3903846,5.07461538 10.4094231,5.08038462 C10.5744231,5.13057692 10.7353846,5.19461538 10.8928846,5.26615385 C10.9326923,5.28403846 10.9719231,5.30365385 11.0111538,5.32326923 C11.1507692,5.39192308 11.2875,5.46807692 11.4190385,5.55346154 C12.5307692,6.27403846 13.2692308,7.5225 13.2692308,8.94230769 C13.2692308,9.26134615 13.5276923,9.51923077 13.8461538,9.51923077 C14.1646154,9.51923077 14.4230769,9.26134615 14.4230769,8.94230769 C14.4230769,7.35346154 13.7042308,5.93134615 12.5769231,4.97826923 C14.2303846,2.81480769 16.9546154,1.44230769 19.6638462,1.44230769 C24.1315385,1.44230769 27.8434615,4.98173077 28.23,9.45403846 C27.6403846,9.4125 26.7571154,9.39115385 25.8744231,9.52615385 C25.5594231,9.57403846 25.3430769,9.86826923 25.3909615,10.1832692 C25.4342308,10.4688462 25.68,10.6736538 25.9603846,10.6736538 C25.9892308,10.6736538 26.0186538,10.6713462 26.0480769,10.6667308 C27.3311538,10.4728846 28.6690385,10.6546154 28.7503846,10.6655769 C31.4365385,11.1761538 33.4615385,13.6505769 33.4615385,16.4261538 C33.4615385,19.6159615 30.8659615,22.2115385 27.6761538,22.2115385 L25.3846154,22.2115385 C25.0661538,22.2115385 24.8076923,22.4694231 24.8076923,22.7884615 C24.8076923,23.1075 25.0661538,23.3653846 25.3846154,23.3653846 L27.6761538,23.3653846 C31.5023077,23.3653846 34.6153846,20.2523077 34.6153846,16.4261538 C34.6153846,13.2594231 32.4075,10.4192308 29.4086538,9.63115385 Z" id="Shape"></path>
            <path d="M18.2930769,15.4580769 C18.24,15.4044231 18.1759615,15.3623077 18.105,15.3328846 C17.9642308,15.2746154 17.805,15.2746154 17.6642308,15.3328846 C17.5932692,15.3623077 17.5298077,15.4044231 17.4761538,15.4580769 L12.8613462,20.0728846 C12.6357692,20.2984615 12.6357692,20.6630769 12.8613462,20.8886538 C12.9738462,21.0011538 13.1215385,21.0576923 13.2692308,21.0576923 C13.4169231,21.0576923 13.5646154,21.0011538 13.6771154,20.8886538 L17.3076923,17.2580769 L17.3076923,29.1346154 C17.3076923,29.4536538 17.5661538,29.7115385 17.8846154,29.7115385 C18.2030769,29.7115385 18.4615385,29.4536538 18.4615385,29.1346154 L18.4615385,17.2580769 L22.0921154,20.8886538 C22.2046154,21.0011538 22.3523077,21.0576923 22.5,21.0576923 C22.6476923,21.0576923 22.7953846,21.0011538 22.9078846,20.8886538 C23.1334615,20.6630769 23.1334615,20.2984615 22.9078846,20.0728846 L18.2930769,15.4580769 Z" id="Shape"></path>
        </g>
    </g>
</svg>